<svg width="504" height="504" viewBox="0 0 504 504" fill="none" xmlns="http://www.w3.org/2000/svg">
<path opacity="0.2" d="M182.877 202.063C185.356 195.411 191.708 191 198.807 191H373.522C385.377 191 393.592 202.828 389.452 213.937L342.123 340.937C339.644 347.589 333.292 352 326.193 352H151.478C139.623 352 131.408 340.172 135.548 329.063L182.877 202.063Z" fill="white"/>
<path opacity="0.4" d="M164.054 184.332C165.775 176.544 172.678 171 180.653 171H356.833C367.701 171 375.778 181.057 373.432 191.668L340.946 338.668C339.225 346.456 332.322 352 324.347 352H148.167C137.3 352 129.223 341.943 131.568 331.332L164.054 184.332Z" fill="white"/>
<path opacity="0.6" d="M145.476 166.317C146.341 157.623 153.655 151 162.392 151H339.224C349.279 151 357.136 159.678 356.141 169.683L339.524 336.683C338.659 345.377 331.345 352 322.608 352H145.775C135.721 352 127.863 343.322 128.859 333.317L145.476 166.317Z" fill="white"/>
<path d="M127 163C127 153.611 134.611 146 144 146H321C330.389 146 338 153.611 338 163V335C338 344.389 330.389 352 321 352H144C134.611 352 127 344.389 127 335V163Z" fill="white"/>
<path opacity="0.8" fill-rule="evenodd" clip-rule="evenodd" d="M264.875 248.182C264.875 229.572 250.285 214.662 232.5 214.662L232.5 191C263.247 191 288 216.699 288 248.182C288 279.665 263.247 305.364 232.5 305.364L232.5 281.702C250.285 281.702 264.875 266.792 264.875 248.182Z" fill="#262146"/>
<path fill-rule="evenodd" clip-rule="evenodd" d="M209.375 248.182C209.375 229.572 194.785 214.662 177 214.662L177 191C207.747 191 232.5 216.699 232.5 248.182C232.5 279.665 207.747 305.364 177 305.364L177 281.702C194.785 281.702 209.375 266.792 209.375 248.182Z" fill="#262146"/>
<path d="M232.5 305.364H177V281.818H232.5V305.364Z" fill="#514D6B"/>
<path d="M232.5 214.546H177V191H232.5V214.546Z" fill="#FF3E3E"/>
</svg>
