<svg width="352" height="278" viewBox="0 0 352 278" fill="none" xmlns="http://www.w3.org/2000/svg">
<path opacity="0.2" d="M72.4174 75.6582C75.6283 66.681 83.8549 60.7279 93.0497 60.7279H319.342C334.696 60.7279 345.336 76.6901 339.974 91.6811L278.673 263.069C275.462 272.047 267.236 278 258.041 278H31.7487C16.3944 278 5.75462 262.038 11.1165 247.047L72.4174 75.6582Z" fill="white"/>
<path opacity="0.4" d="M48.0376 51.7288C50.2666 41.2196 59.2076 33.7376 69.5373 33.7376H297.726C311.801 33.7376 322.263 47.3095 319.225 61.6299L277.149 260.009C274.92 270.518 265.979 278 255.649 278H27.4611C13.3854 278 2.924 264.428 5.96137 250.107L48.0376 51.7288Z" fill="white"/>
<path opacity="0.6" d="M23.9755 27.4175C25.0959 15.6848 34.5696 6.74731 45.8857 6.74731H274.919C287.941 6.74731 298.119 18.4589 296.829 31.9606L275.307 257.33C274.187 269.062 264.713 278 253.397 278H24.3635C11.3412 278 1.16382 266.288 2.4532 252.786L23.9755 27.4175Z" fill="white"/>
<path d="M0.0453796 22.9415C0.0453796 10.2711 9.90337 -0.000244141 22.0638 -0.000244141H251.315C263.475 -0.000244141 273.333 10.2711 273.333 22.9415V255.058C273.333 267.728 263.475 278 251.315 278H22.0638C9.90338 278 0.0453796 267.728 0.0453796 255.058V22.9415Z" fill="white"/>
<path opacity="0.8" fill-rule="evenodd" clip-rule="evenodd" d="M178.621 137.896C178.621 112.781 159.725 92.6595 136.689 92.6595L136.689 60.728C176.513 60.728 208.573 95.4089 208.573 137.896C208.573 180.383 176.513 215.063 136.689 215.063L136.689 183.132C159.725 183.132 178.621 163.011 178.621 137.896Z" fill="#262146"/>
<path fill-rule="evenodd" clip-rule="evenodd" d="M106.738 137.896C106.738 112.781 87.841 92.6595 64.8055 92.6595L64.8055 60.728C104.629 60.728 136.689 95.4089 136.689 137.896C136.689 180.383 104.629 215.063 64.8055 215.063L64.8055 183.132C87.841 183.132 106.738 163.011 106.738 137.896Z" fill="#262146"/>
<path d="M136.689 215.063H64.8055V183.289H136.689V215.063Z" fill="#514D6B"/>
<path d="M136.689 92.5029H64.8055V60.728H136.689V92.5029Z" fill="#FF3E3E"/>
</svg>
