<svg width="50" height="50" viewBox="0 0 50 50" fill="none" xmlns="http://www.w3.org/2000/svg">
<rect width="50" height="50" rx="25" fill="#0058B9"/>
<path d="M21.8447 27.6895H18.7344L18.0508 30H16.3555L19.5889 20.0469H21.0312L24.2031 30H22.5146L21.8447 27.6895ZM19.1514 26.2881H21.4346L20.3066 22.3848L19.1514 26.2881ZM32.3555 28.7559C32.1868 28.9564 31.9886 29.141 31.7607 29.3096C31.5329 29.4782 31.2777 29.624 30.9951 29.7471C30.7126 29.8701 30.4049 29.9658 30.0723 30.0342C29.7441 30.1025 29.3932 30.1367 29.0195 30.1367C28.4225 30.1367 27.8939 30.0205 27.4336 29.7881C26.9733 29.5557 26.5837 29.2389 26.2646 28.8379C25.9502 28.4323 25.7087 27.9561 25.54 27.4092C25.376 26.8623 25.2917 26.2744 25.2871 25.6455V24.415C25.2871 23.7861 25.3691 23.1982 25.5332 22.6514C25.6973 22.1045 25.932 21.6283 26.2373 21.2227C26.5472 20.8171 26.9255 20.498 27.3721 20.2656C27.8187 20.0286 28.3291 19.9102 28.9033 19.9102C29.4183 19.9102 29.8786 19.9808 30.2842 20.1221C30.6898 20.2633 31.0384 20.4684 31.3301 20.7373C31.6217 21.0016 31.8519 21.3252 32.0205 21.708C32.1937 22.0908 32.3031 22.5192 32.3486 22.9932H30.7354C30.6943 22.7243 30.6305 22.4827 30.5439 22.2686C30.4574 22.0544 30.3411 21.8721 30.1953 21.7217C30.0495 21.5713 29.8717 21.4574 29.6621 21.3799C29.457 21.2979 29.2132 21.2568 28.9307 21.2568C28.5843 21.2568 28.2858 21.3434 28.0352 21.5166C27.7891 21.6852 27.584 21.9154 27.4199 22.207C27.2559 22.4941 27.1351 22.8291 27.0576 23.2119C26.9801 23.5902 26.9391 23.9867 26.9346 24.4014V25.6455C26.9391 26.0602 26.9801 26.4567 27.0576 26.835C27.1396 27.2132 27.265 27.5482 27.4336 27.8398C27.6068 28.127 27.8278 28.3571 28.0967 28.5303C28.3656 28.7035 28.6891 28.7923 29.0674 28.7969C29.2223 28.7969 29.3818 28.7878 29.5459 28.7695C29.71 28.7467 29.8649 28.7126 30.0107 28.667C30.1611 28.6214 30.2979 28.5645 30.4209 28.4961C30.5439 28.4232 30.6442 28.3343 30.7217 28.2295L30.7354 26.2402H28.9375V24.9619H32.3418L32.3555 28.7559Z" fill="white"/>
</svg>
